<svg width="1920" height="1080" viewBox="0 0 1920 1080" xmlns="http://www.w3.org/2000/svg"><rect width="1920" height="1080" fill="#ffffff"/><path d="M 0,1080 C 0,1080 0,216 0,216 C 135.01656848306334,173.72754050073638 270.0331369661267,131.45508100147276 358,145 C 445.9668630338733,158.54491899852724 486.88402061855663,227.90721649484533 545,247 C 603.1159793814434,266.09278350515467 678.4307805596468,234.9160530191458 790,229 C 901.5692194403532,223.0839469808542 1049.392857142857,242.42857142857142 1129,228 C 1208.607142857143,213.57142857142858 1219.997790868925,165.36966126656853 1315,188 C 1410.002209131075,210.63033873343147 1588.6159793814431,304.0927835051546 1708,294 C 1827.3840206185569,283.9072164948454 1887.5382916053022,170.25920471281296 1913,140 C 1938.4617083946978,109.74079528718703 1929.230854197349,162.87039764359352 1920,216 C 1920,216 1920,1080 1920,1080 Z" fill="#696969" opacity="0.12"/><path d="M 0,1080 C 0,1080 0,432 0,432 C 125.88807069219439,425.8420471281296 251.77614138438878,419.68409425625924 335,401 C 418.2238586156112,382.31590574374076 458.7835051546392,351.1056701030928 523,369 C 587.2164948453608,386.8943298969072 675.0898379970546,453.8932253313697 781,462 C 886.9101620029454,470.1067746686303 1010.8571428571427,419.32142857142856 1113,413 C 1215.1428571428573,406.67857142857144 1295.481590574374,444.821060382916 1361,467 C 1426.518409425626,489.178939617084 1477.216494845361,495.3943298969072 1592,465 C 1706.783505154639,434.6056701030928 1885.6524300441827,367.60162002945515 1951,356 C 2016.3475699558173,344.39837997054485 1968.1737849779088,388.1991899852724 1920,432 C 1920,432 1920,1080 1920,1080 Z" fill="#696969" opacity="0.24"/><path d="M 0,1080 C 0,1080 0,648 0,648 C 110.35953608247422,665.334499263623 220.71907216494844,682.668998527246 277,700 C 333.28092783505156,717.331001472754 335.4832474226805,734.6585051546391 448,725 C 560.5167525773195,715.3414948453609 783.3479381443299,678.6969808541974 911,678 C 1038.6520618556701,677.3030191458026 1071.125,712.5535714285713 1159,716 C 1246.875,719.4464285714287 1390.15206185567,691.088733431517 1468,673 C 1545.84793814433,654.911266568483 1558.2667525773195,647.0914948453609 1614,635 C 1669.7332474226805,622.9085051546391 1768.7809278350517,606.5452871870398 1827,608 C 1885.2190721649483,609.4547128129602 1902.6095360824743,628.7273564064801 1920,648 C 1920,648 1920,1080 1920,1080 Z" fill="#696969" opacity="0.36"/><path d="M 0,1080 C 0,1080 0,864 0,864 C 68.44256259204712,873.4201030927835 136.88512518409425,882.840206185567 254,875 C 371.11487481590575,867.159793814433 536.9020618556701,842.0592783505152 637,857 C 737.0979381443299,871.9407216494848 771.5066273932254,926.9226804123713 806,935 C 840.4933726067746,943.0773195876287 875.0714285714287,904.25 1005,869 C 1134.9285714285713,833.75 1360.2076583210603,802.0773195876288 1448,797 C 1535.7923416789397,791.9226804123712 1486.0979381443299,813.4407216494847 1576,827 C 1665.9020618556701,840.5592783505153 1895.40058910162,846.159793814433 1976,851 C 2056.59941089838,855.840206185567 1988.29970544919,859.9201030927835 1920,864 C 1920,864 1920,1080 1920,1080 Z" fill="#696969" opacity="0.48"/></svg>