<svg width="1920" height="240" viewBox="0 0 1920 240" xmlns="http://www.w3.org/2000/svg"><rect width="1920" height="240" fill="#ffffff"/><path d="M 0,240 C 0,240 0,48 0,48 C 69.56480117820323,42.34867452135494 139.12960235640645,36.69734904270987 236,42 C 332.87039764359355,47.30265095729013 457.0463917525774,63.55927835051547 552,65 C 646.9536082474226,66.44072164948453 712.6848306332842,53.065537555228275 824,50 C 935.3151693667158,46.934462444771725 1092.2142857142858,54.17857142857143 1160,57 C 1227.7857142857142,59.82142857142857 1206.4580265095728,58.22017673048601 1279,51 C 1351.5419734904272,43.77982326951399 1517.9536082474224,30.940721649484537 1649,32 C 1780.0463917525776,33.05927835051546 1875.7275405007365,48.01693667157585 1915,53 C 1954.2724594992635,57.98306332842415 1937.1362297496316,52.991531664212076 1920,48 C 1920,48 1920,240 1920,240 Z" fill="#000000" opacity="0.12"/><path d="M 0,240 C 0,240 0,96 0,96 C 83.82566273932252,103.33744477172311 167.65132547864505,110.67488954344624 280,112 C 392.34867452135495,113.32511045655376 533.2203608247423,108.63788659793815 596,102 C 658.7796391752577,95.36211340206185 643.4672312223857,86.77356406480119 729,90 C 814.5327687776143,93.22643593519881 1000.9107142857144,108.26785714285714 1151,108 C 1301.0892857142856,107.73214285714286 1414.889911634757,92.15500736377025 1468,84 C 1521.110088365243,75.84499263622975 1513.5296391752577,75.11211340206185 1571,78 C 1628.4703608247423,80.88788659793815 1750.991531664212,87.39653902798234 1820,91 C 1889.008468335788,94.60346097201766 1904.504234167894,95.30173048600884 1920,96 C 1920,96 1920,240 1920,240 Z" fill="#000000" opacity="0.24"/><path d="M 0,240 C 0,240 0,144 0,144 C 43.328792341678906,140.84793814432987 86.65758468335781,137.69587628865978 212,137 C 337.3424153166422,136.30412371134022 544.6984536082476,138.06443298969074 623,142 C 701.3015463917524,145.93556701030926 650.5486008836522,152.0463917525773 738,154 C 825.4513991163478,155.9536082474227 1051.107142857143,153.75 1186,153 C 1320.892857142857,152.25 1365.0228276877763,152.9536082474227 1429,147 C 1492.9771723122237,141.0463917525773 1576.8015463917525,128.43556701030928 1689,126 C 1801.1984536082475,123.56443298969073 1941.7709867452138,131.30412371134022 1985,136 C 2028.2290132547862,140.69587628865978 1974.114506627393,142.34793814432987 1920,144 C 1920,144 1920,240 1920,240 Z" fill="#000000" opacity="0.36"/><path d="M 0,240 C 0,240 0,192 0,192 C 82.29860088365243,186.99650220913108 164.59720176730485,181.99300441826216 243,177 C 321.40279823269515,172.00699558173784 395.909793814433,167.02448453608247 476,175 C 556.090206185567,182.97551546391753 641.7636229749634,203.90905743740797 768,206 C 894.2363770250366,208.09094256259203 1061.0357142857142,191.3392857142857 1172,188 C 1282.9642857142858,184.6607142857143 1338.0935198821799,194.73379970544917 1419,197 C 1499.9064801178201,199.26620029455083 1606.590206185567,193.72551546391753 1679,190 C 1751.409793814433,186.27448453608247 1789.545655375552,184.3641384388807 1824,185 C 1858.454344624448,185.6358615611193 1889.227172312224,188.81793078055966 1920,192 C 1920,192 1920,240 1920,240 Z" fill="#000000" opacity="0.48"/></svg>